<?xml version="1.0" encoding="UTF-8"?>
<!DOCTYPE svg PUBLIC "-//W3C//DTD SVG 1.1//EN" "http://www.w3.org/Graphics/SVG/1.1/DTD/svg11.dtd">
<svg xmlns="http://www.w3.org/2000/svg" xmlns:xlink="http://www.w3.org/1999/xlink" version="1.1"
    width="162px" height="31px"
    style="background-color: none;"
    preserveAspectRatio="none">
    <g>
        <g shape-node="">
            <path cell-id="iblxbqpknJSooCVX-vXI-1" d="M 0 0 L 0 30 L 161 30 L 161 0 Z"
                fill="none" stroke="none" pointer-events="all" />
            <path cell-id="iblxbqpknJSooCVX-vXI-1"
                d="M 0 0 L 0 30 L 161 30 L 161 0 Z M 0.99 0.98 L 5.96 0.98 L 5.96 29.02 L 0.99 29.02 Z M 6.95 0.98 L 154.22 0.98 L 154.22 29.02 L 6.95 29.02 Z M 155.21 0.98 L 160.01 0.98 L 160.01 29.02 L 155.21 29.02 Z M 14.92 6.86 L 14.92 17.65 L 21.88 17.65 L 21.88 6.86 Z M 109.39 6.86 L 109.39 15.69 L 145.19 15.69 L 145.19 6.86 Z M 15.91 7.84 L 20.88 7.84 L 20.88 16.67 L 15.91 16.67 Z M 110.38 7.84 L 144.19 7.84 L 144.19 14.71 L 110.38 14.71 Z M 29.83 8.82 L 29.83 17.65 L 36.79 17.65 L 36.79 12.75 L 36.79 8.82 Z M 41.77 8.82 L 41.77 12.75 L 47.73 12.75 L 47.73 8.82 Z M 49.72 8.82 L 49.72 12.75 L 55.69 12.75 L 55.69 8.82 Z M 57.68 8.82 L 57.68 12.75 L 63.64 12.75 L 63.64 8.82 Z M 74.58 8.82 L 74.58 12.75 L 80.55 12.75 L 80.55 8.82 Z M 30.83 9.8 L 35.8 9.8 L 35.8 12.75 L 30.83 12.75 Z M 42.76 9.8 L 46.74 9.8 L 46.74 11.76 L 42.76 11.76 Z M 50.72 9.8 L 54.69 9.8 L 54.69 11.76 L 50.72 11.76 Z M 58.67 9.8 L 62.65 9.8 L 62.65 11.76 L 58.67 11.76 Z M 75.58 9.8 L 79.56 9.8 L 79.56 11.76 L 75.58 11.76 Z M 30.83 13.73 L 35.8 13.73 L 35.8 16.67 L 30.83 16.67 Z M 41.77 13.73 L 41.77 17.65 L 47.73 17.65 L 47.73 13.73 Z M 49.72 13.73 L 49.72 17.65 L 55.69 17.65 L 55.69 13.73 Z M 57.68 13.73 L 57.68 17.65 L 63.64 17.65 L 63.64 13.73 Z M 74.58 13.73 L 74.58 17.65 L 80.55 17.65 L 80.55 13.73 Z M 42.76 14.71 L 46.74 14.71 L 46.74 16.67 L 42.76 16.67 Z M 50.72 14.71 L 54.69 14.71 L 54.69 16.67 L 50.72 16.67 Z M 58.67 14.71 L 62.65 14.71 L 62.65 16.67 L 58.67 16.67 Z M 75.58 14.71 L 79.56 14.71 L 79.56 16.67 L 75.58 16.67 Z M 89.5 16.67 L 89.5 28.43 L 150.16 28.43 L 150.16 16.67 Z M 90.49 17.65 L 149.17 17.65 L 149.17 21.57 L 90.49 21.57 Z M 17.9 22.55 L 17.9 23.04 L 17.9 28.43 L 78.56 28.43 L 78.56 22.55 Z M 18.89 23.53 L 77.57 23.53 L 77.57 27.45 L 18.89 27.45 Z M 90.49 23.53 L 149.17 23.53 L 149.17 27.45 L 90.49 27.45 Z"
                fill-opacity="0.644" fill="#000000" stroke="none" pointer-events="all" />
            <path cell-id="iblxbqpknJSooCVX-vXI-1"
                d="M 155.21 0.98 L 160.01 0.98 L 160.01 29.02 L 155.21 29.02 Z M 0.99 0.98 L 5.96 0.98 L 5.96 29.02 L 0.99 29.02 Z"
                fill-opacity="0.232" fill="#000000" stroke="none" pointer-events="all" />
        </g>
    </g>
    
</svg>